<svg id="Layer_2" data-name="Layer 2" xmlns="http://www.w3.org/2000/svg" width="240" height="138" viewBox="0 0 240 138"><defs><style>.cls-1{fill:none;stroke:#ccc;stroke-miterlimit:10;}.cls-2{fill:#666;}</style></defs><rect class="cls-1" x="74.5" y="11.5" width="83" height="66"/><path class="cls-1" d="M128.5,1.5s-27,43-22,46,17.2,0,17.2,0c-3.86,17.46-2.53,30.92,5.8,39"/><path class="cls-1" d="M89.5,64.5c18.58-12.33,38.07-12.31,59,1"/><rect class="cls-1" x="129.5" y="21.5" width="4" height="9"/><rect class="cls-1" x="95.5" y="21.5" width="4" height="9"/><path class="cls-2" d="M50.48,108.5l.24-1a42.44,42.44,0,0,0,6-1,45.26,45.26,0,0,0-1.78,5.9l-1.55,6.54a41,41,0,0,1-3.74,10.69,19,19,0,0,0,3.55.4,14.36,14.36,0,0,0,7.15-1.72,12.47,12.47,0,0,0,4.83-5A15.13,15.13,0,0,0,67,116a11.6,11.6,0,0,0-3-8.4,10.53,10.53,0,0,0-8-3.18,16.4,16.4,0,0,0-7.83,2,15.62,15.62,0,0,0-5.81,5.21,11.5,11.5,0,0,0-2.15,6.32,4.68,4.68,0,0,0,2.63,4.41,3.26,3.26,0,0,1,1,.72,1.25,1.25,0,0,1,.22.75,1.36,1.36,0,0,1-.43,1,1.38,1.38,0,0,1-1,.43,3.18,3.18,0,0,1-2.43-1.64,8.19,8.19,0,0,1-1.6-4.71A14.29,14.29,0,0,1,41,111a17.11,17.11,0,0,1,6.7-6,20.41,20.41,0,0,1,9.53-2.23q6.48,0,10.31,3.46A11.22,11.22,0,0,1,71.33,115a15.91,15.91,0,0,1-2.67,8.92,15.41,15.41,0,0,1-6.45,5.79,18.1,18.1,0,0,1-7.56,1.72c-.81,0-2.21-.07-4.21-.23-1.69-.13-3.29-.19-4.8-.19-.7,0-1.77,0-3.21.07l.54-1.15a9.09,9.09,0,0,0,2.68-.37,2.2,2.2,0,0,0,.9-.87A25.41,25.41,0,0,0,48.4,124L50,117.85l1.87-7.64a4.34,4.34,0,0,0,.14-1,.81.81,0,0,0-.23-.6.92.92,0,0,0-.66-.22A5.19,5.19,0,0,0,50.48,108.5Z"/><path class="cls-2" d="M99.29,130l-.24,1.34c-.56,0-1,.07-1.47.07a21.93,21.93,0,0,1-2.21-.14c-1.46-.16-2.39-.24-2.78-.24a21.79,21.79,0,0,0-3,.31,28.38,28.38,0,0,0,1.22-3.85,42,42,0,0,0,.75-4.92c-1.82,0-4.66,0-8.49.12q-6,9.09-8.75,11.42A8.39,8.39,0,0,1,69,136.46a3.12,3.12,0,0,1-2-.51,1.56,1.56,0,0,1-.64-1.3,1.43,1.43,0,0,1,.37-1,1.24,1.24,0,0,1,.94-.39,4.41,4.41,0,0,1,.89.11,10.48,10.48,0,0,0,1.87.33A5.35,5.35,0,0,0,74,131.91Q77,129,83.09,119.72a138.43,138.43,0,0,1,11.08-15.28,42.88,42.88,0,0,0-7.21,1A5.87,5.87,0,0,0,84,107.3a4,4,0,0,0-1,2.53,3.5,3.5,0,0,0,.31,1.2,4.06,4.06,0,0,1,.33,1.26,1.29,1.29,0,0,1-.4.92,1.34,1.34,0,0,1-1,.39A1.55,1.55,0,0,1,81,113a2.84,2.84,0,0,1-.48-1.8,6.64,6.64,0,0,1,.88-3.27,7.38,7.38,0,0,1,2.52-2.64,12.54,12.54,0,0,1,4.1-1.63,30,30,0,0,1,4.45-.54,23.46,23.46,0,0,0,3.47-.45,5.39,5.39,0,0,0,2.12-1.19q-.7,2.88-1,5l-1.83,13.54-1.06,9.71a13,13,0,0,0,3.12.44A10.45,10.45,0,0,0,99.29,130Zm-7.55-9.16A116.77,116.77,0,0,1,94,107q-3,3.94-3.67,5l-6,8.93c1.29,0,3.14.07,5.55.07C90.44,120.92,91.07,120.89,91.74,120.85Z"/><path class="cls-2" d="M120.05,102.82l.66,2.75c.61,2.5,1.21,4.68,1.81,6.56s2.11,6.21,4.57,13q.34-1.29,1.4-5.72,1.37-5.78,1.81-7.24a30,30,0,0,1,2.53-6.38,8.11,8.11,0,0,1,2.72-2.93,6.55,6.55,0,0,1,3.39-.89,4,4,0,0,1,2.34.59,1.7,1.7,0,0,1,.81,1.4,1.42,1.42,0,0,1-.44,1,1.37,1.37,0,0,1-1,.45,2.54,2.54,0,0,1-1-.24c-.78-.31-1.25-.49-1.41-.53a3.79,3.79,0,0,0-.91-.1,2.77,2.77,0,0,0-2,.77c-1,.91-2,3.18-3.2,6.83s-2.65,9.46-4.44,17.46l-.8,3.49q-2.67-5.88-3.61-8.35-1.26-3.3-2.88-8.34l-2.58-8.11q-.46,2.82-2.19,9.48t-2,7.68a18.64,18.64,0,0,1-2.31,4.85,8.14,8.14,0,0,1-2.7,2.46,6.72,6.72,0,0,1-3.22.77,6.13,6.13,0,0,1-3.61-1,2.17,2.17,0,0,1-1.08-1.85,1.22,1.22,0,0,1,.4-.88,1.34,1.34,0,0,1,1-.39,2.4,2.4,0,0,1,1.57.78,4.29,4.29,0,0,0,2.75,1.38,3.86,3.86,0,0,0,2.62-1.2c1.28-1.22,2.52-3.77,3.7-7.66a161.72,161.72,0,0,0,4.15-17.91,20.12,20.12,0,0,0-3.14.47,13.75,13.75,0,0,0-3.88,1.33,6.26,6.26,0,0,0-2.39,2.22,5.51,5.51,0,0,0-.83,2.87,5.87,5.87,0,0,0,.21,1.53,5.41,5.41,0,0,0,.61,1.26,2.92,2.92,0,0,1,.54,1.31,1.32,1.32,0,0,1-.41,1,1.41,1.41,0,0,1-1,.39,1.81,1.81,0,0,1-1.52-.92,5.08,5.08,0,0,1-.64-2.83,8.89,8.89,0,0,1,1.59-5.34,9.74,9.74,0,0,1,4.23-3.33,30.51,30.51,0,0,1,6.51-1.36A30.85,30.85,0,0,0,120.05,102.82Z"/><path class="cls-2" d="M163.84,103a10.45,10.45,0,0,1,5.33,1.37,9.42,9.42,0,0,1,3.69,3.91,12.81,12.81,0,0,1,1.31,5.92,18,18,0,0,1-2.37,8.74,17.48,17.48,0,0,1-5.78,6.54,13.78,13.78,0,0,1-7.6,2.21,10.45,10.45,0,0,1-7.77-3,10.78,10.78,0,0,1-3-7.9,18.85,18.85,0,0,1,2.36-9.06,17.13,17.13,0,0,1,5.82-6.55A14.5,14.5,0,0,1,163.84,103Zm-1.72,1.69a8.5,8.5,0,0,0-5,1.6,11.44,11.44,0,0,0-3.74,5,20.09,20.09,0,0,0-1.45,7.92c0,3.44.76,6.1,2.27,8a7,7,0,0,0,5.67,2.81,8,8,0,0,0,4.8-1.67,11.85,11.85,0,0,0,3.72-5.24,21.52,21.52,0,0,0,1.47-8.22q0-4.81-2.24-7.5A6.88,6.88,0,0,0,162.12,104.68Z"/><path class="cls-2" d="M195.69,112h-1.22c.17-1.64.26-2.88.26-3.73a4,4,0,0,0-1-2.84,3.43,3.43,0,0,0-2.64-1,6.23,6.23,0,0,0-4.48,1.87,5.71,5.71,0,0,0-1.92,4.19,4.84,4.84,0,0,0,.52,2.25,13.58,13.58,0,0,0,2.33,2.81,26.14,26.14,0,0,1,4.32,5.07,7.22,7.22,0,0,1,1,3.56,8.83,8.83,0,0,1-1.56,4.93,11.67,11.67,0,0,1-4.59,3.91,14,14,0,0,1-6.41,1.53,9,9,0,0,1-5.61-1.73c-1.53-1.16-2.29-2.38-2.29-3.66a2.48,2.48,0,0,1,.6-1.71,1.79,1.79,0,0,1,1.37-.68,1.61,1.61,0,0,1,1.31.63,4.63,4.63,0,0,1,.66,1.69,6.44,6.44,0,0,0,.91,2.31,3.93,3.93,0,0,0,1.49,1.17,4.62,4.62,0,0,0,2.07.46,8.46,8.46,0,0,0,5.86-2.27,6.61,6.61,0,0,0,2.51-5,5.77,5.77,0,0,0-.31-1.87,8.67,8.67,0,0,0-1.16-2.1,31.89,31.89,0,0,0-2.61-2.81,27.15,27.15,0,0,1-2.5-2.7,8,8,0,0,1-1.08-2.12,6.6,6.6,0,0,1-.35-2.13,7.69,7.69,0,0,1,1.43-4.29,10.53,10.53,0,0,1,3.71-3.43,10.35,10.35,0,0,1,5.19-1.28,18.56,18.56,0,0,1,3.59.44c.81.16,1.51.28,2.11.35a24.39,24.39,0,0,0-.8,2.88C196.27,107.55,196,109.34,195.69,112Z"/></svg>